HIERARCHY
ROOT Hips
{
	OFFSET -0.001795 -0.223333 0.028219
	CHANNELS 6 Xposition Yposition Zposition Zrotation Yrotation Xrotation 
	JOINT LeftUpLeg
	{
		OFFSET 0.069520 -0.091406 -0.006815
		CHANNELS 3 Zrotation Yrotation Xrotation
		JOINT LeftLeg
		{
			OFFSET 0.034277 -0.375199 -0.004496
			CHANNELS 3 Zrotation Yrotation Xrotation
			JOINT LeftFoot
			{
				OFFSET -0.013596 -0.397961 -0.043693
				CHANNELS 3 Zrotation Yrotation Xrotation
				JOINT LeftToe
				{
					OFFSET 0.026358 -0.055791 0.119288
					CHANNELS 3 Zrotation Yrotation Xrotation
					End Site
					{
						OFFSET 0.000000 0.000000 0.000000
					}
				}
			}
		}
	}
	JOINT RightUpLeg
	{
		OFFSET -0.067670 -0.090522 -0.004320
		CHANNELS 3 Zrotation Yrotation Xrotation
		JOINT RightLeg
		{
			OFFSET -0.038290 -0.382569 -0.008850
			CHANNELS 3 Zrotation Yrotation Xrotation
			JOINT RightFoot
			{
				OFFSET 0.015774 -0.398415 -0.042312
				CHANNELS 3 Zrotation Yrotation Xrotation
				JOINT RightToe
				{
					OFFSET -0.025372 -0.048144 0.123348
					CHANNELS 3 Zrotation Yrotation Xrotation
					End Site
					{
						OFFSET 0.000000 0.000000 0.000000
					}
				}
			}
		}
	}
	JOINT Spine
	{
		OFFSET -0.002533 0.108963 -0.026696
		CHANNELS 3 Zrotation Yrotation Xrotation
		JOINT Spine1
		{
			OFFSET 0.005487 0.135180 0.001092
			CHANNELS 3 Zrotation Yrotation Xrotation
			JOINT Spine2
			{
				OFFSET 0.001457 0.052922 0.025425
				CHANNELS 3 Zrotation Yrotation Xrotation
				JOINT Neck
				{
					OFFSET -0.002778 0.213870 -0.042857
					CHANNELS 3 Zrotation Yrotation Xrotation
					JOINT Head
					{
						OFFSET 0.005152 0.064970 0.051349
						CHANNELS 3 Zrotation Yrotation Xrotation
						End Site
						{
							OFFSET 0.000000 0.000000 0.000000
						}
					}
				}
				JOINT LeftShoulder
				{
					OFFSET 0.078845 0.121749 -0.034090
					CHANNELS 3 Zrotation Yrotation Xrotation
					JOINT LeftArm
					{
						OFFSET 0.090977 0.030469 -0.008868
						CHANNELS 3 Zrotation Yrotation Xrotation
						JOINT LeftForeArm
						{
							OFFSET 0.259612 -0.012772 -0.027456
							CHANNELS 3 Zrotation Yrotation Xrotation
							JOINT LeftHand
							{
								OFFSET 0.249234 0.008986 -0.001171
								CHANNELS 3 Zrotation Yrotation Xrotation
								End Site
								{
									OFFSET 0.000000 0.000000 0.000000
								}
							}
						}
					}
				}
				JOINT RightShoulder
				{
					OFFSET -0.081759 0.118833 -0.038615
					CHANNELS 3 Zrotation Yrotation Xrotation
					JOINT RightArm
					{
						OFFSET -0.096012 0.032551 -0.009143
						CHANNELS 3 Zrotation Yrotation Xrotation
						JOINT RightForeArm
						{
							OFFSET -0.253742 -0.013329 -0.021401
							CHANNELS 3 Zrotation Yrotation Xrotation
							JOINT RightHand
							{
								OFFSET -0.255298 0.007772 -0.005559
								CHANNELS 3 Zrotation Yrotation Xrotation
								End Site
								{
									OFFSET 0.000000 0.000000 0.000000
								}
							}
						}
					}
				}
			}
		}
	}
}
MOTION
Frames: 13
Frame Time: 0.050000
-0.001539 0.950375 -0.028906 -1.050087 -2.828860 5.920314 11.312511 -0.020870 -14.783528 -3.191128 0.356258 10.252988 1.213878 7.870631 18.878443 0.000000 0.000000 0.000000 -8.063536 0.867712 -15.756278 2.144862 0.073377 11.450132 -3.637452 -13.631665 20.470107 0.000000 0.000000 0.000000 -4.391054 0.196051 24.325758 9.274874 -3.012162 -11.338365 -1.072369 3.370325 27.544918 -1.552887 2.528460 -18.086168 0.000000 0.000000 0.000000 -16.287875 -11.081108 4.526772 -54.143295 -32.961041 6.334504 177.502649 -46.106366 -158.656162 0.000000 0.000000 0.000000 -1.947722 21.931590 7.251306 62.967435 33.505633 10.965406 -165.580281 46.532120 -127.846654 0.000000 0.000000 0.000000 
-0.000672 0.950397 -0.028803 -1.125812 -3.057490 5.921609 11.307735 -0.007464 -14.920193 -3.180005 0.360429 10.597856 1.388799 8.086404 18.875943 0.000000 0.000000 0.000000 -8.036886 0.876797 -15.709947 2.317406 0.034005 11.077468 -3.909824 -14.154158 20.940012 0.000000 0.000000 0.000000 -4.363173 0.200236 24.205914 9.137140 -2.972345 -11.293170 -1.071955 3.509613 27.715654 -1.777172 2.695103 -18.270969 0.000000 0.000000 0.000000 -16.609283 -10.920475 4.454545 -54.223108 -31.849283 5.774851 178.270499 -45.799307 -160.333663 0.000000 0.000000 0.000000 -1.122363 22.008212 7.439586 63.083970 32.868356 10.559606 -165.991822 46.125734 -128.199896 0.000000 0.000000 0.000000 
0.000513 0.950172 -0.028701 -1.111736 -3.216705 6.078834 11.291003 -0.001784 -15.107558 -3.334199 0.397184 10.648995 1.552618 8.306638 18.931305 0.000000 0.000000 0.000000 -8.066664 0.886300 -15.814315 2.343529 0.022638 10.726772 -4.183832 -14.646067 21.315039 0.000000 0.000000 0.000000 -4.412469 0.220914 23.994715 9.146398 -2.968676 -11.345409 -1.157311 3.518174 27.834882 -2.128465 2.939429 -18.747502 0.000000 0.000000 0.000000 -16.949000 -10.837994 4.447449 -53.948839 -31.398577 5.479982 178.239513 -45.823955 -160.216818 0.000000 0.000000 0.000000 -0.494942 22.115375 7.601853 62.920176 32.500476 10.230844 -166.296865 45.407114 -128.079529 0.000000 0.000000 0.000000 
0.002020 0.950012 -0.028527 -1.115126 -3.238465 5.979218 11.248757 -0.002986 -15.144560 -3.426108 0.418212 10.833702 1.604604 8.397577 19.019520 0.000000 0.000000 0.000000 -8.096513 0.876135 -15.646327 2.362866 0.011125 10.417915 -4.476624 -15.147030 21.807591 0.000000 0.000000 0.000000 -4.337295 0.201393 23.891673 9.035108 -2.951749 -11.164713 -1.147714 3.541678 27.888649 -2.655356 3.298229 -18.721748 0.000000 0.000000 0.000000 -17.427795 -11.076752 4.585775 -53.464127 -30.835989 5.107119 178.242491 -45.664613 -160.240995 0.000000 0.000000 0.000000 0.264361 22.270045 7.804888 62.721632 32.063760 9.874060 -166.848371 44.760489 -128.565229 0.000000 0.000000 0.000000 
0.003679 0.949701 -0.028309 -1.075405 -3.037947 6.021299 11.134992 -0.026901 -15.224438 -3.428335 0.412779 10.717155 1.490561 8.277536 19.075982 0.000000 0.000000 0.000000 -8.201823 0.859313 -15.611323 2.284386 0.020865 10.371044 -4.572937 -15.260965 21.858917 0.000000 0.000000 0.000000 -4.313822 0.184997 23.866822 9.084092 -3.001559 -10.836567 -1.145192 3.439181 27.476557 -2.922042 3.469740 -18.676222 0.000000 0.000000 0.000000 -17.561499 -11.175947 4.620906 -53.253143 -30.818838 5.115614 177.648898 -45.931764 -159.115246 0.000000 0.000000 0.000000 0.169858 22.324128 7.813352 63.080598 31.856340 9.896922 -166.888044 44.575708 -128.514619 0.000000 0.000000 0.000000 
0.005251 0.949458 -0.028280 -1.008503 -2.835500 5.941325 10.828932 -0.069591 -15.412713 -3.432036 0.409340 10.875415 1.926301 8.989277 19.375316 0.000000 0.000000 0.000000 -8.351683 0.832094 -15.474973 2.250571 0.022863 10.357340 -4.662042 -15.363321 21.912664 0.000000 0.000000 0.000000 -4.217778 0.150290 23.851651 8.984146 -2.984769 -10.654730 -1.268717 3.307009 27.394231 -3.453456 3.822374 -18.771510 0.000000 0.000000 0.000000 -17.593631 -11.546162 4.818873 -52.749149 -30.984676 5.116410 176.558401 -46.184238 -156.764009 0.000000 0.000000 0.000000 0.118607 22.487817 7.857842 63.346222 31.702221 9.879472 -166.661053 44.884085 -128.360416 0.000000 0.000000 0.000000 
0.006541 0.949146 -0.028403 -1.005568 -2.591316 5.886513 10.747687 -0.085488 -15.826928 -3.433657 0.405479 11.351311 1.912235 9.087672 19.772691 0.000000 0.000000 0.000000 -8.402586 0.819584 -15.526084 2.201550 0.034471 10.628498 -4.782552 -15.507529 21.983138 0.000000 0.000000 0.000000 -4.152611 0.119510 23.830163 8.764260 -2.923982 -10.483644 -1.148844 3.172901 27.233446 -3.878608 4.100119 -18.789027 0.000000 0.000000 0.000000 -17.619165 -11.762259 4.926074 -52.448333 -31.304390 5.239969 175.741407 -46.462094 -155.107162 0.000000 0.000000 0.000000 -0.116705 22.749667 7.899775 63.605155 31.707674 9.990593 -166.449306 45.770269 -128.917389 0.000000 0.000000 0.000000 
0.007497 0.948862 -0.028626 -1.002083 -2.440900 5.846533 10.785292 -0.083913 -16.137754 -3.531736 0.424837 11.777463 1.752057 8.919093 19.924646 0.000000 0.000000 0.000000 -8.520336 0.804328 -15.576184 2.298955 0.017279 10.819913 -4.858483 -15.597572 22.025658 0.000000 0.000000 0.000000 -4.198035 0.121079 23.710137 8.782276 -2.945770 -10.329281 -1.250450 3.266598 27.102725 -4.234653 4.363672 -19.109979 0.000000 0.000000 0.000000 -17.740335 -12.095502 5.054829 -51.885188 -31.735246 5.362497 174.796525 -46.879440 -153.419136 0.000000 0.000000 0.000000 -0.602685 23.069822 7.914539 63.836358 32.069562 10.356939 -166.251203 46.459306 -129.117838 0.000000 0.000000 0.000000 
0.008256 0.948763 -0.028733 -1.121137 -2.544623 5.668248 10.860522 -0.063354 -16.251620 -3.589914 0.443347 12.225651 1.956345 9.240566 20.180087 0.000000 0.000000 0.000000 -8.399624 0.822046 -15.750838 2.094299 0.081053 11.604833 -4.443208 -14.957152 21.645455 0.000000 0.000000 0.000000 -4.322460 0.153363 23.686981 8.642620 -2.902810 -10.305554 -1.213077 3.619816 27.130582 -4.287751 4.450809 -19.359425 0.000000 0.000000 0.000000 -17.457122 -12.504078 5.182242 -51.352711 -32.107565 5.439287 173.847400 -47.021105 -151.660411 0.000000 0.000000 0.000000 -1.024223 23.397775 7.937408 63.721479 32.577469 10.731644 -166.277148 46.669331 -129.199407 0.000000 0.000000 0.000000 
0.008966 0.948663 -0.028657 -1.268945 -2.655578 5.472489 10.932535 -0.043767 -16.264009 -3.635612 0.458234 12.433187 2.313820 9.821636 20.730245 0.000000 0.000000 0.000000 -8.378437 0.823276 -15.704790 2.094564 0.095675 12.036102 -3.994207 -14.256529 21.296188 0.000000 0.000000 0.000000 -4.446506 0.185346 23.640212 8.307852 -2.806992 -10.113125 -1.053273 3.778147 27.057474 -4.580214 4.658043 -19.227425 0.000000 0.000000 0.000000 -17.037093 -12.662263 5.216253 -51.071891 -32.462341 5.564015 173.043745 -47.128486 -150.091115 0.000000 0.000000 0.000000 -1.760183 23.510241 7.811010 63.543936 33.480618 11.315355 -166.186946 46.390406 -128.708271 0.000000 0.000000 0.000000 
0.009776 0.948962 -0.028474 -1.394033 -2.718673 5.311539 10.960785 -0.035008 -16.116340 -3.507642 0.431126 12.455785 2.278677 9.804858 20.950958 0.000000 0.000000 0.000000 -8.298933 0.824732 -15.543768 1.985451 0.124805 12.205739 -3.638017 -13.698712 21.093046 0.000000 0.000000 0.000000 -4.537834 0.205021 23.396174 8.107505 -2.728481 -10.206188 -1.108410 3.953399 27.160567 -4.699233 4.763942 -18.977146 0.000000 0.000000 0.000000 -16.584426 -12.703687 5.189980 -51.210595 -32.555768 5.615329 173.187359 -47.524760 -150.702124 0.000000 0.000000 0.000000 -2.306574 23.713520 7.750698 63.011934 34.484134 11.835788 -165.296420 46.014688 -126.353344 0.000000 0.000000 0.000000 
0.010817 0.949176 -0.028363 -1.473941 -2.709634 5.303314 10.839039 -0.052470 -15.993097 -3.334944 0.390461 12.212426 2.441351 10.041599 21.028784 0.000000 0.000000 0.000000 -8.400528 0.815741 -15.559948 2.097639 0.105700 12.362062 -3.397045 -13.317718 21.023509 0.000000 0.000000 0.000000 -4.604515 0.216176 23.059740 7.729037 -2.601128 -10.109055 -0.883739 4.041669 27.062486 -5.042043 5.002849 -18.680817 0.000000 0.000000 0.000000 -16.235331 -12.908815 5.254441 -51.323418 -32.500257 5.624991 172.701042 -47.594892 -149.770310 0.000000 0.000000 0.000000 -2.841680 23.718417 7.634517 62.473684 35.243478 12.196900 -164.274381 45.309981 -123.392066 0.000000 0.000000 0.000000 
0.012027 0.949460 -0.028587 -1.540731 -2.607002 5.263952 10.864469 -0.054258 -15.912457 -3.269072 0.372183 12.082899 2.158906 9.669885 21.011731 0.000000 0.000000 0.000000 -8.480948 0.803588 -15.543285 2.157821 0.094964 12.521699 -3.226210 -13.031412 20.989555 0.000000 0.000000 0.000000 -4.731874 0.237329 22.886554 7.571493 -2.525777 -10.289326 -0.937853 4.209167 27.206368 -4.858136 4.917390 -18.107023 0.000000 0.000000 0.000000 -15.885178 -12.804067 5.140751 -51.703027 -32.364094 5.613409 173.086261 -47.729318 -150.785725 0.000000 0.000000 0.000000 -3.393030 23.496090 7.441032 61.932686 36.030787 12.578685 -163.265146 44.149947 -119.700645 0.000000 0.000000 0.000000 
